<svg xmlns="http://www.w3.org/2000/svg" xmlns:xlink="http://www.w3.org/1999/xlink" width="500" zoomAndPan="magnify" viewBox="0 0 375 374.999991" height="500" preserveAspectRatio="xMidYMid meet" version="1.0"><defs><g/></defs><rect x="-37.5" width="450" fill="#ffffff" y="-37.499999" height="449.999989" fill-opacity="1"/><rect x="-37.5" width="450" fill="#ffffff" y="-37.499999" height="449.999989" fill-opacity="1"/><g fill="#000000" fill-opacity="1"><g transform="translate(15.054251, 339.69803)"><g><path d="M 76.039062 -209.902344 C 75.300781 -209.410156 75.300781 -209.65625 76.039062 -210.886719 C 76.53125 -211.871094 76.53125 -212.855469 76.53125 -213.101562 C 76.039062 -213.347656 73.085938 -209.164062 73.085938 -208.425781 C 73.085938 -207.441406 76.285156 -208.425781 76.53125 -209.410156 C 76.777344 -210.148438 76.53125 -210.148438 76.039062 -209.902344 Z M 67.425781 -197.109375 C 67.671875 -198.09375 67.671875 -198.09375 66.6875 -197.355469 C 65.949219 -196.617188 64.226562 -190.464844 64.226562 -188.25 C 64.226562 -187.265625 64.964844 -188.25 66.441406 -191.695312 C 67.425781 -193.664062 67.917969 -195.386719 67.671875 -195.632812 C 67.179688 -195.632812 67.179688 -196.371094 67.425781 -197.109375 Z M 351.890625 -314.242188 C 350.167969 -315.226562 349.921875 -316.703125 351.644531 -316.703125 C 352.875 -316.703125 352.875 -318.671875 351.398438 -319.164062 C 350.90625 -319.410156 350.414062 -320.148438 350.660156 -320.886719 C 351.398438 -322.855469 349.429688 -324.328125 345 -324.820312 C 341.554688 -325.066406 340.324219 -325.066406 339.832031 -324.328125 C 339.585938 -323.59375 339.339844 -323.347656 339.339844 -324.082031 C 339.339844 -324.574219 338.847656 -325.066406 338.355469 -325.066406 C 337.617188 -325.066406 337.125 -324.820312 337.125 -324.574219 C 337.125 -324.082031 335.648438 -324.082031 333.925781 -324.082031 C 330.972656 -324.574219 316.457031 -323.59375 300.214844 -321.871094 C 295.785156 -321.625 288.648438 -320.886719 284.464844 -320.886719 C 278.3125 -320.394531 261.828125 -318.917969 244.601562 -317.195312 C 241.648438 -316.703125 233.035156 -315.71875 231.066406 -315.472656 C 230.082031 -315.226562 226.390625 -314.734375 222.699219 -314.242188 C 219.007812 -313.996094 212.609375 -313.011719 208.425781 -312.519531 C 204 -311.78125 197.847656 -310.796875 194.648438 -310.304688 C 191.449219 -309.8125 187.265625 -309.320312 185.542969 -308.828125 C 183.820312 -308.582031 180.375 -307.84375 177.667969 -307.351562 C 169.792969 -306.121094 139.28125 -299.230469 130.175781 -296.769531 C 125.5 -295.292969 121.070312 -294.308594 120.332031 -294.0625 C 117.625 -293.570312 99.414062 -288.402344 92.03125 -285.941406 C 87.851562 -284.710938 83.175781 -283.234375 81.207031 -282.496094 C 79.238281 -282.003906 73.578125 -280.035156 68.902344 -278.3125 C 64.226562 -276.589844 59.796875 -275.359375 59.304688 -275.359375 C 58.320312 -275.359375 16.488281 -259.859375 8.859375 -256.90625 C 2.953125 -254.199219 2.707031 -254.199219 2.460938 -251.492188 C 2.460938 -250.015625 2.460938 -247.0625 2.460938 -244.847656 C 2.707031 -241.648438 2.953125 -240.910156 3.9375 -240.910156 C 4.675781 -241.15625 5.167969 -240.171875 5.660156 -237.957031 C 6.644531 -234.019531 8.859375 -232.542969 11.320312 -234.019531 C 12.058594 -234.511719 13.042969 -234.757812 13.535156 -234.511719 C 14.027344 -234.511719 15.257812 -235.003906 21.164062 -237.710938 C 30.265625 -241.894531 44.785156 -248.539062 45.277344 -248.539062 C 45.523438 -248.539062 47.492188 -249.523438 49.953125 -250.507812 C 52.167969 -251.492188 56.597656 -253.460938 59.796875 -254.9375 C 63.242188 -256.167969 66.195312 -257.398438 66.441406 -257.644531 C 67.425781 -258.382812 87.605469 -265.515625 95.230469 -267.730469 C 98.183594 -268.46875 101.136719 -269.699219 101.382812 -269.945312 C 101.875 -270.191406 103.105469 -270.683594 104.089844 -270.929688 C 106.304688 -271.175781 106.304688 -271.421875 102.367188 -266.5 C 99.660156 -263.304688 86.375 -244.601562 79.238281 -233.773438 C 70.871094 -220.976562 65.457031 -211.871094 62.257812 -205.722656 C 61.273438 -203.261719 59.796875 -201.046875 59.304688 -200.800781 C 58.8125 -200.308594 58.566406 -199.570312 58.566406 -199.078125 C 58.566406 -198.339844 58.074219 -197.847656 57.828125 -197.847656 C 57.582031 -197.847656 56.597656 -196.371094 55.613281 -194.402344 C 54.875 -192.1875 52.167969 -186.773438 49.707031 -182.34375 C 44.046875 -171.269531 38.632812 -159.457031 38.632812 -158.71875 C 38.878906 -158.472656 37.648438 -155.519531 35.925781 -152.320312 C 34.203125 -148.875 31.742188 -143.710938 30.511719 -141.003906 L 28.054688 -135.34375 L 21.164062 -131.898438 C 14.519531 -128.699219 14.027344 -128.207031 14.027344 -125.992188 C 13.78125 -124.269531 14.027344 -123.039062 15.257812 -122.054688 C 15.996094 -121.316406 16.488281 -120.085938 16.488281 -119.59375 C 16.488281 -118.855469 17.472656 -117.625 18.210938 -116.394531 C 20.425781 -114.179688 20.425781 -113.933594 18.457031 -104.582031 C 14.027344 -85.390625 13.289062 -58.566406 16.980469 -40.847656 C 18.703125 -33.464844 21.410156 -24.363281 22.886719 -22.886719 C 23.378906 -22.148438 24.363281 -20.425781 24.855469 -19.195312 C 25.347656 -17.964844 27.070312 -14.765625 28.792969 -11.8125 C 31.25 -7.628906 32.972656 -5.660156 36.910156 -2.953125 C 39.617188 -0.984375 43.0625 1.476562 44.292969 2.460938 C 46.753906 4.429688 53.152344 6.398438 56.597656 6.644531 C 57.828125 6.644531 59.550781 6.890625 60.289062 7.382812 C 62.75 8.367188 61.519531 8.613281 81.207031 4.429688 C 87.605469 3.199219 93.261719 0.984375 96.460938 -0.984375 C 97.691406 -1.96875 100.644531 -3.9375 103.105469 -5.414062 C 105.320312 -6.890625 107.535156 -8.367188 107.535156 -8.859375 C 107.535156 -9.351562 107.78125 -9.597656 108.027344 -9.597656 C 109.257812 -9.597656 116.148438 -15.503906 118.855469 -18.703125 C 122.054688 -22.394531 120.578125 -22.394531 116.640625 -18.703125 C 112.703125 -15.011719 108.519531 -12.058594 108.765625 -13.289062 C 109.011719 -13.535156 112.210938 -16.734375 116.148438 -20.425781 C 119.839844 -23.871094 123.777344 -27.5625 124.761719 -28.300781 C 125.746094 -29.285156 128.699219 -32.480469 131.652344 -35.433594 C 134.359375 -38.386719 137.066406 -40.847656 137.3125 -40.847656 C 138.296875 -40.847656 152.074219 -56.84375 152.074219 -58.074219 C 152.074219 -58.8125 154.289062 -62.011719 157.242188 -65.457031 C 165.609375 -75.300781 177.914062 -92.769531 177.914062 -94.492188 C 177.914062 -96.214844 176.4375 -95.230469 174.46875 -92.523438 C 172.007812 -88.34375 169.054688 -84.652344 168.5625 -84.652344 C 167.824219 -84.652344 173.238281 -93.261719 174.714844 -94.492188 C 175.453125 -94.984375 175.699219 -95.96875 175.699219 -96.460938 C 175.699219 -97.199219 179.636719 -100.890625 180.867188 -101.136719 C 181.113281 -101.136719 181.851562 -101.382812 182.097656 -101.382812 C 182.589844 -101.382812 183.820312 -103.351562 185.296875 -105.8125 C 186.527344 -108.027344 188.742188 -111.226562 189.726562 -112.457031 C 196.125 -120.085938 211.378906 -143.710938 211.378906 -145.679688 C 211.378906 -147.15625 210.148438 -146.171875 207.933594 -142.726562 C 206.703125 -141.003906 205.96875 -139.773438 205.96875 -140.019531 C 205.96875 -140.511719 207.195312 -142.480469 208.425781 -144.695312 C 211.625 -149.367188 212.363281 -151.582031 211.132812 -152.8125 C 210.394531 -153.304688 210.148438 -153.550781 210.148438 -153.058594 C 210.148438 -152.8125 209.410156 -151.335938 208.425781 -150.105469 C 207.195312 -148.875 204.246094 -144.941406 201.785156 -141.25 C 199.324219 -137.804688 196.371094 -133.867188 195.140625 -132.882812 C 194.15625 -131.652344 190.710938 -127.222656 187.511719 -122.792969 C 184.3125 -118.609375 178.898438 -111.226562 175.453125 -106.796875 C 172.007812 -102.367188 166.839844 -95.722656 163.886719 -91.785156 C 161.179688 -88.097656 150.597656 -76.039062 140.511719 -64.964844 C 130.421875 -54.136719 122.054688 -44.785156 122.054688 -44.292969 C 122.054688 -43.554688 121.5625 -43.308594 121.070312 -43.308594 C 120.578125 -43.308594 118.855469 -41.832031 116.886719 -39.863281 C 115.164062 -37.894531 113.195312 -36.417969 112.949219 -36.417969 C 112.703125 -36.417969 111.472656 -35.1875 110.242188 -33.710938 C 108.765625 -32.234375 106.550781 -30.265625 105.320312 -29.285156 C 103.84375 -28.300781 100.398438 -25.839844 97.199219 -23.871094 C 85.636719 -15.75 81.699219 -13.535156 70.378906 -10.089844 C 62.75 -7.875 50.445312 -7.875 43.554688 -10.335938 L 38.632812 -12.304688 L 35.925781 -17.964844 C 31.988281 -27.070312 31.003906 -33.957031 31.003906 -53.152344 C 31.003906 -71.363281 32.234375 -82.683594 36.171875 -97.9375 C 38.632812 -107.535156 43.554688 -121.5625 45.03125 -123.53125 C 46.261719 -125.253906 62.257812 -132.144531 79.730469 -138.789062 C 84.898438 -140.757812 89.078125 -142.480469 89.570312 -142.726562 C 90.0625 -143.21875 91.046875 -143.710938 92.03125 -143.957031 C 95.722656 -145.1875 102.121094 -148.628906 104.089844 -150.351562 C 105.074219 -151.335938 106.550781 -153.796875 107.042969 -155.519531 C 108.027344 -158.472656 108.027344 -158.964844 107.042969 -161.179688 C 106.550781 -162.410156 105.566406 -163.394531 105.320312 -163.394531 C 104.828125 -163.394531 104.582031 -164.132812 104.582031 -165.117188 C 104.582031 -166.839844 102.859375 -166.839844 100.398438 -165.117188 C 97.445312 -162.65625 92.523438 -160.441406 83.667969 -157.734375 C 79.238281 -156.257812 75.054688 -154.78125 74.316406 -154.289062 C 73.578125 -153.796875 72.101562 -153.304688 71.117188 -153.058594 C 70.132812 -152.8125 66.195312 -151.335938 62.011719 -149.859375 C 58.074219 -148.382812 54.875 -147.398438 54.628906 -147.398438 C 54.382812 -147.644531 56.351562 -151.582031 58.8125 -156.257812 C 61.273438 -160.933594 64.472656 -167.332031 66.195312 -170.777344 C 67.917969 -174.222656 69.886719 -178.160156 70.871094 -179.882812 C 71.855469 -181.359375 72.347656 -182.835938 72.347656 -182.835938 C 72.347656 -183.082031 73.824219 -185.542969 75.546875 -188.25 C 77.269531 -191.203125 78.746094 -193.910156 78.5 -194.648438 C 78.253906 -195.140625 78.5 -195.632812 78.992188 -195.632812 C 79.484375 -195.632812 80.714844 -197.355469 81.945312 -199.324219 C 82.929688 -201.292969 85.882812 -205.96875 88.585938 -209.902344 C 91.046875 -213.59375 95.722656 -220.730469 98.675781 -225.40625 C 101.628906 -230.328125 106.304688 -236.972656 108.765625 -240.417969 C 111.226562 -243.863281 114.671875 -248.539062 116.394531 -251 C 118.117188 -253.214844 123.039062 -259.367188 127.714844 -264.289062 C 138.542969 -275.851562 139.527344 -277.082031 139.527344 -277.820312 C 139.527344 -278.3125 146.910156 -282.25 148.136719 -282.25 C 148.628906 -282.25 151.582031 -282.988281 154.535156 -283.726562 C 157.488281 -284.710938 160.933594 -285.449219 161.671875 -285.203125 C 162.902344 -285.203125 163.640625 -285.941406 164.132812 -287.417969 C 164.625 -288.894531 165.117188 -289.878906 165.609375 -289.878906 C 165.855469 -289.878906 165.855469 -289.140625 165.363281 -288.15625 C 164.625 -286.679688 164.625 -286.679688 167.824219 -287.171875 C 169.792969 -287.417969 174.960938 -288.402344 179.390625 -289.140625 C 183.820312 -290.125 188.496094 -290.863281 189.726562 -291.109375 C 191.695312 -291.109375 196.863281 -292.09375 198.09375 -292.585938 C 198.339844 -292.585938 201.046875 -292.832031 204.246094 -293.324219 C 207.195312 -293.570312 210.148438 -294.0625 210.394531 -294.308594 C 210.886719 -294.800781 213.101562 -295.046875 215.5625 -295.046875 C 220.238281 -295.292969 222.699219 -296.03125 222.699219 -297.507812 C 222.699219 -298 221.960938 -298.246094 220.976562 -298 C 218.023438 -297.261719 211.132812 -296.523438 211.625 -297.015625 C 211.871094 -297.261719 215.316406 -298 219.5 -298.492188 C 223.683594 -299.230469 227.621094 -299.722656 227.867188 -299.722656 C 230.082031 -300.460938 230.082031 -299.476562 227.867188 -298.492188 C 226.390625 -298 224.914062 -297.753906 224.667969 -298 C 224.175781 -298.246094 223.929688 -297.753906 223.929688 -297.015625 C 223.929688 -296.03125 224.667969 -295.785156 228.113281 -296.277344 C 230.328125 -296.769531 232.296875 -297.261719 232.542969 -297.753906 C 232.789062 -298 233.28125 -298.246094 233.773438 -298 C 234.265625 -297.753906 234.511719 -297.753906 234.511719 -298.246094 C 234.511719 -298.492188 234.265625 -298.984375 233.773438 -298.984375 C 233.527344 -298.984375 233.035156 -299.476562 233.035156 -299.722656 C 233.035156 -300.214844 233.773438 -300.460938 234.511719 -300.460938 C 235.25 -300.460938 235.988281 -299.96875 235.988281 -299.476562 C 235.988281 -298.738281 236.234375 -298.246094 236.726562 -298.246094 C 236.972656 -298.246094 237.21875 -298.738281 237.21875 -299.476562 C 236.972656 -300.707031 236.972656 -300.707031 243.863281 -301.691406 C 249.03125 -302.183594 250.015625 -302.675781 249.03125 -304.152344 C 248.539062 -304.890625 248.539062 -305.136719 249.769531 -305.136719 C 251.738281 -305.382812 252.722656 -305.136719 253.953125 -303.90625 C 255.183594 -302.429688 254.9375 -302.183594 253.460938 -302.183594 C 251.984375 -302.183594 251.492188 -300.953125 252.722656 -300.214844 C 253.707031 -299.476562 256.167969 -300.460938 256.167969 -301.691406 C 256.167969 -303.414062 257.398438 -303.660156 264.042969 -303.90625 L 270.4375 -304.152344 L 265.515625 -303.414062 C 262.566406 -303.167969 260.351562 -302.429688 260.351562 -302.183594 C 260.351562 -301.199219 276.835938 -302.183594 278.3125 -303.167969 C 278.804688 -303.414062 279.789062 -303.414062 280.527344 -303.167969 C 282.003906 -302.675781 283.726562 -303.90625 283.234375 -305.136719 C 282.742188 -305.628906 283.234375 -305.875 284.464844 -305.875 C 286.1875 -305.875 286.1875 -305.875 285.449219 -304.644531 C 284.464844 -303.414062 285.203125 -303.414062 293.078125 -303.90625 C 298 -304.152344 308.335938 -304.890625 316.210938 -305.382812 C 324.082031 -306.121094 334.910156 -306.859375 340.078125 -307.105469 C 345.492188 -307.351562 349.921875 -307.84375 350.167969 -308.335938 C 350.414062 -308.828125 350.90625 -308.828125 351.152344 -308.582031 C 351.644531 -308.335938 352.382812 -308.582031 352.875 -309.320312 C 354.351562 -310.796875 353.613281 -313.257812 351.890625 -314.242188 Z M 193.171875 -121.070312 C 193.664062 -121.316406 193.910156 -121.070312 193.910156 -120.578125 C 193.910156 -120.332031 193.664062 -119.839844 193.171875 -119.839844 C 192.433594 -119.839844 192.433594 -120.332031 193.171875 -121.070312 Z M 184.558594 -109.75 C 184.804688 -109.503906 184.804688 -108.765625 184.804688 -108.273438 C 184.558594 -107.535156 184.3125 -107.78125 184.3125 -108.519531 C 184.3125 -109.503906 184.3125 -109.996094 184.558594 -109.75 Z M 179.390625 -109.503906 C 179.882812 -110.242188 180.375 -110.734375 180.621094 -110.734375 C 180.867188 -110.734375 180.375 -110.242188 180.128906 -109.503906 C 179.636719 -108.765625 178.898438 -108.273438 178.898438 -108.273438 C 178.652344 -108.273438 178.898438 -108.765625 179.390625 -109.503906 Z M 173.484375 -101.875 C 174.46875 -103.105469 175.945312 -105.074219 176.929688 -106.058594 C 178.40625 -107.289062 177.914062 -106.796875 176.191406 -104.582031 C 172.5 -99.90625 171.761719 -99.167969 173.484375 -101.875 Z M 169.546875 -91.292969 C 171.023438 -92.277344 171.023438 -92.277344 170.285156 -90.800781 C 169.300781 -88.832031 168.070312 -88.097656 168.070312 -89.324219 C 168.070312 -90.0625 168.808594 -90.800781 169.546875 -91.292969 Z M 37.894531 -118.609375 C 33.957031 -109.503906 29.773438 -93.753906 28.546875 -83.175781 C 27.5625 -77.023438 26.824219 -69.886719 26.332031 -67.179688 C 25.839844 -64.71875 25.59375 -60.042969 25.59375 -56.84375 C 25.59375 -49.707031 27.5625 -29.039062 28.546875 -26.085938 C 28.792969 -24.855469 29.039062 -23.625 28.792969 -23.625 C 28.546875 -23.132812 25.839844 -31.25 24.363281 -37.402344 C 22.886719 -43.308594 21.65625 -51.183594 22.886719 -47.984375 C 23.378906 -46.015625 23.378906 -46.015625 23.378906 -48.476562 C 23.625 -50.199219 23.378906 -50.9375 22.640625 -50.691406 C 22.148438 -50.691406 21.65625 -51.921875 21.65625 -54.875 C 21.410156 -58.074219 21.65625 -59.304688 22.148438 -59.058594 C 22.640625 -58.8125 22.886719 -59.058594 22.886719 -59.796875 C 22.886719 -60.289062 22.640625 -60.78125 22.148438 -60.535156 C 21.164062 -59.796875 20.917969 -65.949219 21.410156 -74.808594 C 21.65625 -80.960938 22.148438 -83.421875 22.886719 -83.914062 C 23.625 -84.40625 23.625 -84.898438 23.132812 -85.144531 C 22.640625 -85.636719 22.640625 -87.113281 23.132812 -91.046875 C 23.625 -95.230469 23.871094 -96.214844 24.363281 -94.984375 C 24.855469 -93.753906 24.855469 -94 24.609375 -95.722656 C 24.117188 -98.921875 24.855469 -102.121094 26.085938 -102.121094 C 27.070312 -102.121094 27.070312 -102.859375 26.824219 -104.828125 C 26.332031 -108.027344 26.824219 -111.472656 27.808594 -109.996094 C 28.300781 -108.765625 31.25 -113.441406 31.25 -115.65625 C 31.25 -116.640625 36.910156 -121.316406 38.386719 -121.316406 C 38.632812 -121.316406 38.386719 -120.085938 37.894531 -118.609375 Z M 89.324219 -235.003906 C 89.570312 -235.496094 88.832031 -233.773438 87.359375 -231.3125 C 84.898438 -227.128906 84.40625 -226.390625 84.40625 -227.375 C 84.40625 -228.113281 88.34375 -234.511719 89.324219 -235.003906 Z M 80.714844 -221.960938 C 81.699219 -224.421875 83.667969 -226.882812 83.667969 -225.898438 C 83.667969 -225.40625 82.929688 -224.175781 81.945312 -222.699219 C 80.960938 -221.714844 80.46875 -221.222656 80.714844 -221.960938 Z M 41.09375 -147.15625 C 40.355469 -146.417969 40.355469 -146.664062 40.847656 -147.644531 C 41.09375 -148.382812 41.339844 -148.875 41.585938 -148.628906 C 41.832031 -148.382812 41.585938 -147.644531 41.09375 -147.15625 Z M 91.539062 -230.820312 C 87.605469 -225.160156 75.792969 -204.738281 75.546875 -203.015625 C 75.300781 -202.03125 74.808594 -201.046875 74.5625 -201.046875 C 74.316406 -201.046875 72.59375 -198.585938 71.117188 -195.632812 C 68.902344 -191.449219 68.164062 -189.972656 68.902344 -189.480469 C 69.886719 -188.988281 65.949219 -180.128906 55.859375 -160.441406 C 53.152344 -155.027344 50.445312 -149.367188 49.460938 -147.644531 C 48.722656 -145.925781 47.246094 -144.203125 46.261719 -143.710938 C 45.277344 -143.21875 44.046875 -142.726562 43.308594 -142.726562 C 42.078125 -142.726562 42.078125 -144.203125 43.554688 -144.941406 C 44.046875 -145.1875 44.539062 -145.679688 44.292969 -146.171875 C 44.046875 -146.664062 44.292969 -147.890625 45.03125 -148.875 C 45.523438 -150.105469 45.769531 -151.335938 45.769531 -152.074219 C 45.769531 -153.796875 44.046875 -154.042969 43.554688 -152.566406 C 43.308594 -151.828125 43.308594 -152.074219 43.308594 -152.8125 C 43.0625 -153.304688 44.539062 -156.75 46.261719 -159.949219 C 49.707031 -166.59375 50.445312 -167.332031 47.738281 -161.425781 C 46.015625 -157.734375 46.015625 -157.734375 47.492188 -157.734375 C 48.230469 -157.734375 49.214844 -158.71875 49.460938 -159.703125 C 49.953125 -160.6875 50.445312 -162.164062 51.183594 -162.65625 C 51.675781 -163.394531 52.90625 -165.609375 53.890625 -167.824219 C 62.257812 -183.820312 62.011719 -183.328125 60.289062 -183.328125 C 59.796875 -183.328125 58.566406 -182.34375 57.335938 -180.867188 L 55.613281 -178.40625 L 57.089844 -181.851562 C 58.074219 -183.820312 59.550781 -186.773438 60.535156 -188.25 C 61.519531 -189.972656 62.75 -191.941406 62.996094 -192.679688 C 63.242188 -193.171875 64.964844 -196.371094 66.6875 -199.324219 C 68.902344 -203.261719 70.625 -205.230469 71.363281 -205.230469 C 72.101562 -205.230469 72.839844 -205.96875 73.085938 -206.703125 C 73.332031 -207.933594 73.085938 -208.179688 72.101562 -207.195312 C 71.609375 -206.703125 71.117188 -206.457031 71.117188 -206.703125 C 71.117188 -207.441406 78.746094 -219.5 79.238281 -219.5 C 79.484375 -219.5 78.992188 -218.515625 78.5 -217.53125 C 77.269531 -215.316406 77.023438 -213.59375 78.007812 -214.332031 C 78.5 -214.578125 78.746094 -214.578125 78.746094 -214.085938 C 78.746094 -213.59375 78.5 -213.101562 78.007812 -212.855469 C 77.761719 -212.609375 77.269531 -212.117188 77.269531 -211.378906 C 77.269531 -210.394531 78.992188 -212.609375 84.160156 -220.730469 C 86.375 -224.175781 89.078125 -228.113281 90.308594 -229.589844 C 91.292969 -231.066406 92.03125 -231.558594 91.539062 -230.820312 Z M 106.058594 -273.882812 C 105.074219 -273.882812 104.582031 -274.128906 105.074219 -274.375 C 105.566406 -274.375 106.304688 -274.375 106.796875 -274.375 C 107.289062 -274.128906 107.042969 -273.882812 106.058594 -273.882812 Z M 113.195312 -284.710938 C 110.980469 -284.21875 108.765625 -283.726562 108.519531 -283.726562 C 107.535156 -283.726562 112.457031 -285.449219 115.902344 -286.433594 C 119.839844 -287.417969 117.625 -285.941406 113.195312 -284.710938 Z M 128.699219 -293.816406 C 128.207031 -293.078125 121.070312 -290.863281 112.949219 -288.648438 C 104.582031 -286.433594 97.691406 -284.464844 97.691406 -284.464844 C 96.460938 -284.710938 101.875 -286.433594 114.179688 -289.878906 C 121.808594 -292.09375 128.207031 -293.816406 128.699219 -294.0625 C 129.191406 -294.554688 129.191406 -294.308594 128.699219 -293.816406 Z M 143.957031 -293.324219 C 144.449219 -293.078125 144.203125 -293.078125 143.464844 -293.078125 C 142.726562 -292.832031 142.234375 -293.078125 142.480469 -293.324219 C 142.726562 -293.570312 143.21875 -293.570312 143.957031 -293.324219 Z M 140.757812 -297.261719 C 141.25 -297.507812 141.988281 -297.507812 142.480469 -297.261719 C 142.972656 -297.015625 142.480469 -296.769531 141.496094 -296.769531 C 140.511719 -296.769531 140.265625 -297.015625 140.757812 -297.261719 Z M 136.328125 -295.785156 C 135.835938 -295.292969 133.128906 -294.800781 133.128906 -295.539062 C 133.128906 -295.785156 134.113281 -295.785156 135.097656 -296.03125 C 135.835938 -296.277344 136.574219 -296.277344 136.328125 -295.785156 Z M 139.773438 -292.09375 C 138.050781 -291.109375 136.820312 -291.109375 138.050781 -292.09375 C 138.789062 -292.585938 139.773438 -292.832031 140.265625 -292.832031 C 141.003906 -292.832031 140.757812 -292.585938 139.773438 -292.09375 Z M 147.644531 -285.449219 C 146.910156 -285.203125 145.679688 -284.464844 145.1875 -283.726562 C 144.941406 -283.234375 144.449219 -282.988281 144.449219 -283.480469 C 144.449219 -284.21875 143.464844 -284.21875 142.234375 -283.972656 C 140.511719 -283.726562 140.265625 -283.726562 141.25 -284.464844 C 141.988281 -284.710938 143.957031 -285.203125 145.679688 -285.449219 C 147.644531 -285.695312 148.382812 -285.695312 147.644531 -285.449219 Z M 151.089844 -285.941406 C 150.351562 -285.941406 149.859375 -286.1875 150.105469 -286.433594 C 150.351562 -286.679688 151.089844 -286.679688 151.582031 -286.433594 C 152.074219 -286.1875 151.828125 -286.1875 151.089844 -285.941406 Z M 153.796875 -286.925781 C 153.058594 -286.679688 152.8125 -286.925781 153.058594 -287.171875 C 153.304688 -287.417969 153.796875 -287.417969 154.289062 -287.417969 C 154.78125 -286.925781 154.78125 -286.925781 153.796875 -286.925781 Z M 161.671875 -288.402344 C 161.179688 -288.402344 159.703125 -288.15625 157.980469 -287.664062 C 155.519531 -287.417969 155.273438 -287.417969 156.257812 -288.402344 C 156.996094 -289.386719 158.226562 -289.386719 159.457031 -289.386719 C 160.6875 -288.894531 161.425781 -289.386719 161.917969 -289.878906 C 162.410156 -290.863281 162.65625 -290.617188 162.65625 -289.632812 C 162.65625 -288.894531 162.164062 -288.402344 161.671875 -288.402344 Z M 156.996094 -296.769531 C 157.980469 -297.507812 161.179688 -297.753906 160.441406 -297.261719 C 160.195312 -297.015625 159.210938 -296.769531 157.980469 -296.523438 C 156.503906 -296.03125 156.257812 -296.03125 156.996094 -296.769531 Z M 166.347656 -298.246094 C 165.609375 -297.753906 164.132812 -297.507812 163.148438 -297.507812 C 161.671875 -297.507812 161.671875 -297.753906 162.902344 -298.246094 C 163.640625 -298.492188 165.117188 -298.984375 166.101562 -298.984375 C 167.578125 -298.984375 167.824219 -298.738281 166.347656 -298.246094 Z M 171.515625 -299.722656 C 170.285156 -298.738281 169.300781 -298.738281 169.792969 -299.722656 C 170.039062 -300.214844 170.777344 -300.460938 171.515625 -300.460938 C 172.5 -300.460938 172.5 -300.460938 171.515625 -299.722656 Z M 176.929688 -300.460938 C 176.683594 -300.214844 175.699219 -299.722656 174.960938 -299.722656 C 173.484375 -299.96875 173.484375 -299.96875 174.714844 -300.460938 C 176.683594 -301.445312 177.421875 -301.445312 176.929688 -300.460938 Z M 181.359375 -301.445312 C 180.128906 -300.460938 179.390625 -300.460938 179.390625 -301.445312 C 179.390625 -301.691406 180.128906 -302.183594 180.867188 -302.183594 C 182.097656 -302.183594 182.34375 -301.9375 181.359375 -301.445312 Z M 183.574219 -301.445312 C 182.589844 -301.445312 182.589844 -301.9375 183.574219 -302.429688 C 183.820312 -302.675781 184.3125 -302.429688 184.3125 -302.183594 C 184.3125 -301.691406 183.820312 -301.445312 183.574219 -301.445312 Z M 187.019531 -302.183594 C 186.035156 -302.183594 185.542969 -302.429688 186.035156 -302.675781 C 186.527344 -302.921875 187.511719 -302.921875 188.003906 -302.675781 C 188.496094 -302.429688 188.003906 -302.183594 187.019531 -302.183594 Z M 191.941406 -302.921875 C 190.957031 -302.921875 190.464844 -303.167969 190.957031 -303.414062 C 191.449219 -303.660156 192.433594 -303.660156 192.679688 -303.414062 C 193.171875 -303.167969 192.925781 -302.921875 191.941406 -302.921875 Z M 197.109375 -303.660156 C 196.617188 -303.660156 196.125 -303.90625 196.371094 -304.398438 C 196.617188 -304.890625 197.109375 -305.136719 197.601562 -305.136719 C 197.847656 -305.136719 198.09375 -304.890625 198.09375 -304.398438 C 198.09375 -303.90625 197.601562 -303.660156 197.109375 -303.660156 Z M 180.621094 -304.644531 C 180.128906 -304.398438 178.652344 -304.152344 177.175781 -303.90625 C 173.730469 -303.414062 156.503906 -299.722656 152.074219 -298.492188 C 150.105469 -298 147.15625 -297.507812 145.925781 -297.507812 C 143.957031 -297.753906 143.957031 -297.753906 145.1875 -298 C 146.171875 -298.246094 148.875 -298.738281 151.335938 -299.476562 C 157.242188 -300.953125 172.746094 -304.152344 178.40625 -305.136719 C 180.621094 -305.628906 185.296875 -306.367188 188.742188 -307.105469 C 201.046875 -309.320312 217.777344 -311.535156 218.269531 -311.042969 C 218.269531 -310.796875 214.578125 -310.058594 209.902344 -309.566406 C 189.726562 -306.367188 181.851562 -305.136719 180.621094 -304.644531 Z M 208.917969 -296.03125 C 208.425781 -296.03125 208.179688 -296.277344 208.425781 -296.769531 C 208.425781 -297.015625 208.917969 -297.507812 209.410156 -297.507812 C 209.902344 -297.507812 210.148438 -297.015625 210.148438 -296.769531 C 210.148438 -296.277344 209.65625 -296.03125 208.917969 -296.03125 Z M 214.824219 -305.875 C 212.363281 -305.628906 209.65625 -305.136719 208.671875 -305.136719 C 207.6875 -305.136719 208.671875 -305.628906 210.640625 -305.875 C 212.855469 -306.367188 214.824219 -307.105469 214.824219 -307.351562 C 215.070312 -308.335938 218.269531 -308.335938 218.761719 -307.597656 C 219.007812 -307.105469 217.039062 -306.367188 214.824219 -305.875 Z M 298.984375 -319.410156 C 299.230469 -319.65625 299.722656 -319.65625 300.214844 -319.410156 C 300.953125 -319.164062 300.707031 -318.917969 299.96875 -318.917969 C 299.230469 -318.917969 298.738281 -319.164062 298.984375 -319.410156 Z M 295.539062 -319.410156 C 295.785156 -319.65625 296.277344 -319.65625 296.769531 -319.410156 C 297.261719 -319.164062 297.261719 -318.917969 296.523438 -318.917969 C 295.539062 -318.917969 295.292969 -319.164062 295.539062 -319.410156 Z M 287.171875 -318.671875 C 288.15625 -318.917969 289.632812 -318.917969 290.617188 -318.671875 C 291.355469 -318.425781 290.617188 -318.425781 288.648438 -318.425781 C 286.679688 -318.425781 285.941406 -318.425781 287.171875 -318.671875 Z M 275.605469 -317.933594 C 276.34375 -318.179688 277.820312 -318.179688 278.558594 -317.933594 C 279.542969 -317.6875 278.804688 -317.6875 277.082031 -317.6875 C 275.359375 -317.6875 274.621094 -317.6875 275.605469 -317.933594 Z M 258.382812 -316.210938 C 258.382812 -316.210938 261.335938 -316.703125 265.027344 -316.949219 C 269.453125 -317.195312 270.191406 -317.195312 267.730469 -316.703125 C 264.042969 -315.964844 257.890625 -315.71875 258.382812 -316.210938 Z M 256.90625 -313.257812 C 257.644531 -313.503906 258.875 -313.503906 259.367188 -313.257812 C 260.105469 -313.257812 259.613281 -313.011719 258.136719 -313.011719 C 256.90625 -313.011719 256.414062 -313.257812 256.90625 -313.257812 Z M 252.476562 -315.472656 C 252.96875 -315.71875 253.707031 -315.71875 254.199219 -315.472656 C 254.691406 -315.472656 254.445312 -315.226562 253.460938 -315.226562 C 252.476562 -315.226562 251.984375 -315.472656 252.476562 -315.472656 Z M 243.863281 -314.980469 C 244.847656 -314.980469 246.570312 -314.980469 247.554688 -314.980469 C 248.785156 -314.734375 247.800781 -314.488281 245.585938 -314.488281 C 243.617188 -314.488281 242.632812 -314.734375 243.863281 -314.980469 Z M 238.449219 -313.996094 C 238.941406 -314.242188 239.925781 -314.242188 240.417969 -313.996094 C 240.664062 -313.75 240.417969 -313.75 239.433594 -313.75 C 238.449219 -313.75 237.957031 -313.75 238.449219 -313.996094 Z M 232.296875 -313.257812 C 232.789062 -313.503906 233.527344 -313.503906 234.265625 -313.257812 C 235.003906 -313.257812 234.511719 -313.011719 233.527344 -313.011719 C 232.296875 -313.011719 231.804688 -313.011719 232.296875 -313.257812 Z M 231.804688 -310.304688 C 232.050781 -310.550781 232.789062 -310.550781 233.28125 -310.304688 C 233.773438 -310.058594 233.527344 -309.8125 232.789062 -309.8125 C 232.050781 -309.8125 231.804688 -309.8125 231.804688 -310.304688 Z M 227.128906 -312.519531 C 227.621094 -312.765625 228.851562 -312.765625 229.34375 -312.519531 C 230.082031 -312.519531 229.589844 -312.273438 228.113281 -312.273438 C 226.882812 -312.273438 226.390625 -312.519531 227.128906 -312.519531 Z M 221.714844 -306.859375 C 220.484375 -306.859375 219.992188 -306.859375 220.484375 -307.105469 C 220.730469 -307.351562 221.714844 -307.351562 222.453125 -307.105469 C 223.191406 -306.859375 222.699219 -306.859375 221.714844 -306.859375 Z M 221.960938 -311.535156 C 220.484375 -311.535156 219.992188 -311.535156 220.730469 -311.78125 C 221.46875 -312.027344 222.453125 -312.027344 223.191406 -311.78125 C 223.683594 -311.535156 223.191406 -311.535156 221.960938 -311.535156 Z M 241.15625 -303.660156 C 239.925781 -302.675781 234.757812 -301.9375 235.742188 -302.921875 C 236.234375 -303.414062 237.710938 -303.90625 239.1875 -304.152344 C 240.417969 -304.152344 241.402344 -303.90625 241.15625 -303.660156 Z M 259.367188 -305.136719 C 257.890625 -304.890625 256.90625 -305.136719 257.152344 -305.382812 C 257.398438 -306.613281 261.828125 -307.105469 261.828125 -306.121094 C 261.828125 -305.628906 260.597656 -305.136719 259.367188 -305.136719 Z M 275.113281 -304.644531 C 273.390625 -304.644531 272.652344 -304.644531 273.390625 -304.890625 C 274.375 -305.136719 275.605469 -305.136719 276.589844 -304.890625 C 277.574219 -304.644531 276.835938 -304.644531 275.113281 -304.644531 Z M 277.574219 -307.351562 C 277.328125 -306.859375 276.835938 -306.613281 276.34375 -306.613281 C 275.359375 -306.613281 275.605469 -307.105469 276.835938 -307.84375 C 277.328125 -307.84375 277.820312 -307.84375 277.574219 -307.351562 Z M 279.542969 -305.136719 C 279.296875 -305.628906 279.542969 -305.875 280.28125 -305.875 C 280.773438 -305.875 281.265625 -305.875 281.265625 -305.628906 C 281.265625 -304.890625 280.035156 -304.398438 279.542969 -305.136719 Z M 330.480469 -316.703125 C 326.296875 -316.210938 320.640625 -315.472656 317.6875 -315.226562 C 314.734375 -314.734375 308.089844 -313.75 302.675781 -313.257812 C 297.507812 -312.519531 293.078125 -312.027344 292.585938 -311.78125 C 292.339844 -311.535156 287.417969 -311.042969 282.003906 -310.550781 C 276.34375 -310.058594 270.191406 -309.566406 267.730469 -309.320312 C 265.027344 -309.074219 263.796875 -309.074219 264.042969 -309.566406 C 264.535156 -310.304688 263.304688 -310.550781 261.089844 -310.550781 C 256.90625 -310.550781 244.601562 -309.074219 242.878906 -308.335938 C 242.386719 -308.089844 241.648438 -308.089844 241.402344 -308.089844 C 241.15625 -308.089844 239.925781 -307.84375 238.941406 -307.597656 C 236.480469 -306.859375 223.929688 -307.351562 223.929688 -308.089844 C 223.929688 -308.335938 225.40625 -308.582031 226.882812 -308.335938 C 231.3125 -307.84375 235.988281 -308.828125 235.742188 -310.058594 C 235.496094 -310.796875 235.742188 -311.289062 236.234375 -311.289062 C 236.972656 -311.289062 236.972656 -310.796875 236.972656 -310.058594 C 236.480469 -309.074219 236.972656 -308.828125 240.910156 -309.320312 C 243.371094 -309.566406 247.308594 -310.058594 249.769531 -310.550781 C 257.644531 -311.78125 312.519531 -316.210938 328.511719 -316.949219 L 338.355469 -317.195312 Z M 207.195312 -153.550781 C 207.195312 -152.8125 207.933594 -153.058594 208.917969 -153.796875 C 209.902344 -154.535156 211.132812 -154.78125 211.378906 -154.78125 C 211.871094 -154.535156 212.363281 -154.78125 212.609375 -155.273438 C 213.59375 -156.75 214.824219 -161.179688 214.332031 -161.425781 C 213.839844 -162.164062 207.195312 -154.535156 207.195312 -153.550781 Z M 207.195312 -153.550781 "/></g></g></g><g fill="#000000" fill-opacity="1"><g transform="translate(208.976842, 234.976966)"><g><path d="M 44.785156 -43.636719 C 44.292969 -43.390625 44.292969 -43.636719 44.867188 -44.457031 C 45.441406 -45.441406 45.359375 -46.257812 44.703125 -45.683594 C 44.539062 -45.519531 43.800781 -44.539062 43.0625 -43.390625 C 40.929688 -40.191406 37.15625 -35.433594 35.679688 -33.957031 C 34.941406 -33.300781 33.957031 -32.234375 33.546875 -31.578125 C 32.726562 -30.429688 31.742188 -29.445312 31.25 -29.363281 C 30.921875 -29.28125 30.019531 -28.296875 27.394531 -25.261719 C 23.703125 -20.75 17.386719 -14.683594 14.519531 -12.632812 C 11.074219 -10.253906 7.136719 -8.449219 5.25 -8.367188 C 4.757812 -8.367188 3.855469 -8.449219 3.117188 -8.53125 C 2.132812 -8.777344 1.804688 -8.941406 1.230469 -9.84375 C -0.65625 -12.550781 -0.984375 -16.074219 0 -22.0625 C 0.410156 -24.03125 0.984375 -26.65625 1.3125 -27.804688 C 1.96875 -29.9375 1.96875 -29.9375 2.707031 -29.773438 C 4.265625 -29.527344 7.546875 -31.25 9.679688 -33.464844 C 13.699219 -37.566406 22.71875 -49.128906 27.640625 -56.429688 C 28.460938 -57.660156 29.9375 -59.875 30.921875 -61.351562 C 31.90625 -62.746094 33.546875 -65.453125 34.695312 -67.257812 C 35.84375 -69.0625 36.828125 -70.785156 36.992188 -70.949219 C 39.453125 -74.804688 47.40625 -89.484375 50.03125 -95.144531 C 51.917969 -99.246094 52.410156 -100.394531 52.65625 -102.199219 C 52.820312 -103.59375 52.738281 -103.921875 51.179688 -106.296875 C 50.277344 -107.691406 47.816406 -108.429688 46.175781 -107.609375 C 33.628906 -101.378906 15.664062 -73.574219 14.683594 -71.6875 C 14.355469 -71.113281 13.453125 -69.390625 12.550781 -67.914062 C 10.089844 -64.058594 3.691406 -51.753906 3.773438 -51.015625 C 3.773438 -50.933594 3.363281 -50.03125 2.953125 -49.046875 C 0 -42.652344 -3.609375 -30.921875 -4.675781 -24.605469 C -5.414062 -20.421875 -5.167969 -16.320312 -4.101562 -13.945312 C -3.773438 -13.371094 -3.363281 -12.222656 -3.035156 -11.402344 C -1.96875 -8.53125 0.328125 -6.234375 3.773438 -4.59375 C 5.25 -3.855469 5.578125 -3.855469 7.628906 -3.9375 C 9.023438 -4.019531 10.253906 -4.183594 10.746094 -4.429688 C 11.238281 -4.675781 11.976562 -4.921875 12.386719 -5.085938 C 13.453125 -5.332031 17.796875 -8.121094 19.847656 -9.925781 C 21.652344 -11.484375 25.589844 -15.171875 27.476562 -17.140625 C 29.445312 -19.191406 35.597656 -26.902344 36.664062 -28.707031 C 37.238281 -29.691406 38.386719 -31.414062 39.289062 -32.644531 C 40.109375 -33.957031 40.847656 -35.105469 40.847656 -35.351562 C 40.847656 -35.761719 37.566406 -31.742188 33.136719 -25.753906 C 31.824219 -24.113281 29.199219 -20.996094 27.148438 -18.863281 C 26.246094 -17.960938 23.867188 -15.910156 23.621094 -15.910156 C 23.539062 -15.910156 23.621094 -16.15625 23.785156 -16.402344 C 24.03125 -16.648438 24.195312 -17.058594 24.277344 -17.386719 C 24.359375 -17.632812 25.097656 -18.535156 26.082031 -19.355469 C 28.296875 -21.488281 37.730469 -33.21875 39.78125 -36.417969 C 40.683594 -37.8125 41.667969 -39.289062 42.078125 -39.617188 L 42.816406 -40.273438 L 42.242188 -39.289062 C 41.421875 -37.976562 41.832031 -37.402344 42.734375 -38.386719 C 44.375 -40.109375 45.929688 -44.210938 44.785156 -43.636719 Z M 1.558594 -39.125 C 1.640625 -39.78125 4.675781 -47.40625 4.921875 -47.652344 C 5.003906 -47.816406 4.429688 -46.09375 3.527344 -43.800781 C 2.132812 -40.191406 1.394531 -38.304688 1.558594 -39.125 Z M 41.175781 -80.460938 C 41.011719 -80.050781 40.765625 -79.722656 40.683594 -79.722656 C 40.519531 -79.722656 41.011719 -80.789062 41.257812 -80.953125 C 41.421875 -81.117188 41.339844 -80.871094 41.175781 -80.460938 Z M 35.84375 -91.78125 C 39.371094 -95.800781 42.078125 -98.589844 44.457031 -100.722656 C 45.277344 -101.460938 46.257812 -102.363281 46.667969 -102.773438 C 46.996094 -103.101562 47.652344 -103.59375 48.144531 -103.921875 L 48.964844 -104.496094 L 48.71875 -102.773438 C 48.472656 -100.96875 47.816406 -99.164062 47.242188 -98.589844 C 47.078125 -98.425781 46.996094 -98.179688 47.078125 -98.097656 C 47.242188 -97.851562 46.996094 -97.277344 44.128906 -91.617188 C 41.421875 -86.367188 38.796875 -81.691406 35.269531 -75.867188 C 31.414062 -69.390625 30.511719 -67.996094 29.035156 -66.191406 C 28.296875 -65.289062 27.066406 -63.566406 26.410156 -62.417969 C 25.671875 -61.269531 24.605469 -59.792969 24.113281 -59.136719 C 23.539062 -58.398438 21.40625 -55.445312 19.273438 -52.574219 C 13.289062 -44.292969 8.121094 -38.140625 4.675781 -35.1875 C 3.445312 -34.121094 3.363281 -34.121094 3.527344 -34.777344 C 3.773438 -35.84375 7.054688 -44.375 7.792969 -46.175781 C 10.089844 -51.015625 10.828125 -52.738281 10.910156 -53.476562 C 11.074219 -54.132812 14.109375 -59.875 17.46875 -65.78125 C 19.109375 -68.570312 22.964844 -74.394531 24.113281 -75.789062 C 24.441406 -76.113281 34.121094 -89.730469 35.84375 -91.78125 Z M 5.003906 -48.308594 C 5.003906 -48.390625 5.085938 -48.636719 5.25 -48.71875 C 5.414062 -48.800781 5.414062 -48.71875 5.332031 -48.472656 C 5.25 -47.980469 5.085938 -47.898438 5.003906 -48.308594 Z M 6.398438 -51.179688 C 6.644531 -51.507812 6.5625 -51.261719 6.316406 -50.605469 C 6.070312 -50.03125 5.742188 -49.457031 5.578125 -49.292969 C 5.332031 -48.800781 5.988281 -50.605469 6.398438 -51.179688 Z M 7.628906 -53.722656 C 7.546875 -53.886719 7.710938 -54.132812 7.957031 -54.378906 C 8.285156 -54.707031 8.285156 -54.707031 8.039062 -54.214844 C 7.875 -53.886719 7.710938 -53.640625 7.628906 -53.558594 C 7.628906 -53.476562 7.628906 -53.558594 7.628906 -53.722656 Z M 9.925781 -58.644531 C 9.925781 -58.808594 10.089844 -59.136719 10.335938 -59.464844 L 10.828125 -59.957031 L 10.5 -59.21875 C 10.089844 -58.480469 9.925781 -58.316406 9.925781 -58.644531 Z M 12.304688 -62.746094 C 12.46875 -62.828125 12.222656 -62.253906 11.894531 -61.515625 C 11.484375 -60.777344 11.15625 -60.121094 10.992188 -60.121094 C 10.746094 -60.121094 11.976562 -62.5 12.304688 -62.746094 Z M 12.878906 -63.648438 C 12.878906 -63.976562 13.289062 -64.714844 13.699219 -65.289062 C 14.109375 -65.863281 14.4375 -66.4375 14.4375 -66.519531 C 14.4375 -66.601562 14.519531 -66.683594 14.683594 -66.683594 C 14.847656 -66.683594 14.519531 -66.109375 14.109375 -65.371094 C 13.617188 -64.632812 13.125 -63.8125 13.042969 -63.484375 C 12.714844 -63.074219 12.714844 -63.074219 12.878906 -63.648438 Z M 14.847656 -67.257812 C 14.847656 -67.339844 15.011719 -67.585938 15.09375 -67.667969 C 15.171875 -67.75 15.253906 -67.667969 15.171875 -67.421875 C 15.011719 -66.929688 14.929688 -66.847656 14.847656 -67.257812 Z M 16.320312 -70.210938 C 16.320312 -70.375 16.484375 -70.621094 16.730469 -70.867188 C 17.058594 -71.195312 17.140625 -71.195312 16.8125 -70.703125 C 16.648438 -70.375 16.484375 -70.128906 16.402344 -70.046875 C 16.402344 -69.964844 16.402344 -70.046875 16.320312 -70.210938 Z M 23.375 -77.507812 C 23.785156 -78.164062 23.949219 -78.246094 23.949219 -77.917969 C 23.949219 -77.835938 23.703125 -77.507812 23.457031 -77.34375 C 22.964844 -76.933594 22.964844 -76.933594 23.375 -77.507812 Z M 3.691406 -47.488281 C 6.972656 -55.28125 12.222656 -65.289062 16.402344 -71.6875 C 18.617188 -75.050781 22.636719 -80.789062 22.800781 -80.789062 C 22.800781 -80.789062 22.636719 -80.378906 22.390625 -79.886719 C 22.0625 -79.476562 21.816406 -78.984375 21.816406 -78.902344 C 21.816406 -78.738281 20.832031 -77.425781 19.601562 -75.789062 C 18.371094 -74.148438 17.058594 -72.34375 16.730469 -71.605469 C 16.320312 -70.949219 15.910156 -70.292969 15.746094 -70.128906 C 15.582031 -70.046875 15.5 -69.71875 15.5 -69.472656 C 15.5 -69.144531 15.5 -69.144531 15.828125 -69.472656 C 16.238281 -69.800781 16.238281 -69.800781 15.992188 -69.390625 C 15.828125 -69.144531 15.582031 -68.898438 15.417969 -68.898438 C 15.171875 -68.898438 14.355469 -67.832031 14.4375 -67.585938 C 14.4375 -67.421875 14.109375 -66.929688 13.699219 -66.519531 C 13.371094 -66.109375 13.125 -65.617188 13.125 -65.535156 C 13.125 -65.453125 12.46875 -64.222656 11.648438 -62.910156 C 10.910156 -61.597656 10.089844 -60.121094 9.925781 -59.710938 C 9.761719 -59.21875 8.859375 -57.414062 8.039062 -55.773438 C 7.136719 -53.96875 6.234375 -52 5.90625 -51.34375 C 5.660156 -50.605469 5.167969 -49.539062 4.839844 -48.964844 C 4.59375 -48.390625 4.101562 -47.160156 3.773438 -46.257812 C 3.363281 -45.441406 2.789062 -43.964844 2.378906 -42.980469 C 2.050781 -42.078125 1.558594 -40.929688 1.476562 -40.355469 C 1.148438 -39.453125 0 -37.074219 -0.0820312 -37.402344 C -0.0820312 -37.8125 2.296875 -44.210938 3.691406 -47.488281 Z M -2.625 -23.703125 C -2.871094 -22.964844 -3.035156 -22.472656 -3.035156 -22.71875 C -3.035156 -22.964844 -2.953125 -23.703125 -2.707031 -24.523438 C -2.542969 -25.261719 -2.378906 -25.671875 -2.296875 -25.425781 C -2.296875 -25.261719 -2.460938 -24.441406 -2.625 -23.703125 Z M -1.394531 -28.871094 C -1.804688 -27.394531 -2.132812 -26.082031 -2.214844 -26 C -2.460938 -25.671875 -2.296875 -26.65625 -1.804688 -28.214844 C -1.558594 -29.117188 -1.3125 -30.019531 -1.3125 -30.183594 C -1.3125 -30.347656 -1.230469 -30.675781 -1.066406 -31.003906 C -0.902344 -31.332031 -0.984375 -30.347656 -1.394531 -28.871094 Z M -1.394531 -28.871094 "/></g></g></g><g fill="#000000" fill-opacity="1"><g transform="translate(250.641804, 234.976966)"><g><path d="M 35.84375 -47.734375 C 35.023438 -46.996094 33.546875 -45.765625 32.480469 -45.03125 C 30.757812 -43.882812 30.347656 -43.71875 29.363281 -43.636719 C 28.707031 -43.554688 28.132812 -43.554688 27.96875 -43.636719 C 27.394531 -43.964844 26.902344 -45.519531 26.328125 -48.71875 C 26.082031 -50.523438 25.671875 -52.410156 25.507812 -52.984375 C 25.179688 -54.132812 24.359375 -55.445312 23.703125 -55.855469 C 23.539062 -55.9375 23.292969 -56.265625 23.128906 -56.511719 C 22.71875 -57.332031 20.175781 -57.824219 19.109375 -57.332031 C 17.878906 -56.757812 16.566406 -55.609375 14.519531 -53.230469 C 12.550781 -50.933594 8.367188 -45.359375 8.039062 -44.621094 C 7.628906 -43.71875 8.449219 -44.539062 9.351562 -46.011719 C 10.910156 -48.308594 14.519531 -52.902344 16.074219 -54.460938 C 16.730469 -55.117188 18.78125 -56.757812 19.027344 -56.757812 C 19.109375 -56.757812 18.617188 -56.265625 17.878906 -55.609375 C 16.320312 -54.214844 11.238281 -48.0625 9.351562 -45.195312 C 8.613281 -44.210938 7.300781 -41.996094 6.316406 -40.519531 C 4.675781 -37.730469 4.101562 -37.074219 4.839844 -38.632812 C 5.25 -39.453125 7.21875 -42.734375 7.382812 -42.980469 C 7.464844 -43.0625 7.628906 -43.308594 7.710938 -43.554688 C 8.039062 -44.457031 7.546875 -43.964844 6.726562 -42.734375 C 6.234375 -41.996094 5.90625 -41.421875 5.824219 -41.421875 C 5.660156 -41.421875 6.152344 -42.570312 7.710938 -46.421875 C 8.613281 -48.554688 9.597656 -51.015625 9.925781 -51.917969 C 10.5 -53.722656 11.8125 -56.347656 13.289062 -58.890625 C 13.78125 -59.710938 14.191406 -60.53125 14.191406 -60.695312 C 14.191406 -60.859375 14.273438 -61.269531 14.4375 -61.597656 C 14.847656 -62.417969 14.847656 -63.074219 14.4375 -63.074219 C 14.273438 -63.074219 14.027344 -63.238281 13.78125 -63.484375 C 13.453125 -63.976562 13.453125 -63.976562 11.320312 -63.566406 C 11.074219 -63.566406 10.910156 -63.402344 10.910156 -63.320312 C 10.910156 -63.15625 10.746094 -62.910156 10.582031 -62.664062 C 10.335938 -62.5 9.761719 -61.515625 9.351562 -60.613281 C 8.859375 -59.628906 8.121094 -58.234375 7.710938 -57.414062 C 6.480469 -55.199219 5.824219 -53.804688 4.839844 -51.589844 C 4.347656 -50.441406 3.609375 -48.636719 3.117188 -47.488281 C 2.625 -46.421875 1.96875 -44.703125 1.558594 -43.800781 C 1.148438 -42.816406 0.492188 -41.175781 0.0820312 -40.191406 C -2.378906 -34.53125 -4.019531 -29.9375 -4.675781 -26.574219 L -5.085938 -24.6875 L -4.675781 -23.867188 C -4.347656 -23.457031 -4.101562 -22.964844 -4.019531 -22.71875 C -3.9375 -22.554688 -3.691406 -22.390625 -3.363281 -22.308594 C -3.117188 -22.226562 -2.789062 -22.0625 -2.707031 -21.898438 C -2.625 -21.734375 -2.378906 -21.570312 -2.214844 -21.570312 C -2.050781 -21.488281 -1.722656 -21.488281 -1.558594 -21.488281 C -1.066406 -21.488281 0.492188 -23.292969 1.066406 -24.441406 C 1.3125 -24.933594 1.96875 -26.164062 2.625 -27.230469 C 3.199219 -28.214844 3.9375 -29.445312 4.101562 -29.855469 C 4.347656 -30.265625 5.167969 -31.660156 5.824219 -32.808594 C 7.054688 -34.859375 7.464844 -35.761719 8.367188 -38.058594 C 8.53125 -38.550781 8.777344 -39.125 8.941406 -39.289062 C 9.023438 -39.535156 9.761719 -40.765625 10.582031 -42.078125 C 11.976562 -44.457031 12.796875 -45.765625 13.453125 -46.503906 C 13.617188 -46.75 13.78125 -47.078125 13.699219 -47.242188 C 13.699219 -47.488281 13.863281 -47.734375 14.109375 -47.816406 C 14.273438 -47.898438 14.519531 -48.144531 14.519531 -48.390625 C 14.601562 -48.800781 15.253906 -49.539062 15.582031 -49.621094 C 15.746094 -49.621094 15.992188 -49.867188 16.238281 -50.195312 C 17.222656 -51.425781 18.78125 -52.902344 19.109375 -52.820312 C 19.355469 -52.820312 19.355469 -52.820312 19.191406 -52.902344 C 18.863281 -53.148438 19.929688 -54.132812 20.257812 -53.96875 C 20.421875 -53.886719 20.421875 -53.886719 20.339844 -54.050781 C 20.257812 -54.214844 20.421875 -54.378906 20.914062 -54.625 C 21.488281 -54.953125 21.652344 -54.953125 21.816406 -54.789062 C 21.898438 -54.625 22.0625 -53.394531 22.144531 -52 C 22.226562 -50.605469 22.472656 -48.882812 22.636719 -48.226562 C 23.210938 -46.175781 25.917969 -42.242188 27.3125 -41.667969 C 27.640625 -41.503906 28.132812 -41.257812 28.378906 -41.09375 C 28.789062 -40.847656 29.363281 -40.847656 30.511719 -40.929688 C 32.5625 -41.09375 33.382812 -41.585938 35.351562 -43.882812 C 36.828125 -45.601562 36.992188 -45.929688 37.402344 -47.242188 C 38.058594 -49.785156 37.894531 -49.867188 35.84375 -47.734375 Z M 3.9375 -44.867188 C 4.265625 -45.113281 4.265625 -45.113281 4.019531 -44.703125 C 3.855469 -44.457031 3.773438 -44.210938 3.691406 -44.210938 C 3.691406 -44.128906 3.691406 -44.210938 3.691406 -44.292969 C 3.609375 -44.457031 3.773438 -44.621094 3.9375 -44.867188 Z M -2.296875 -26.65625 C -2.460938 -26.410156 -2.542969 -26.246094 -2.625 -26.164062 C -2.625 -26.164062 -2.707031 -26.164062 -2.707031 -26.246094 C -2.707031 -26.410156 -2.542969 -26.65625 -2.378906 -26.820312 C -2.132812 -27.066406 -2.050781 -27.066406 -2.296875 -26.65625 Z M 2.625 -40.109375 C 2.378906 -39.699219 2.214844 -39.207031 2.214844 -39.042969 C 2.214844 -38.796875 2.132812 -38.632812 2.050781 -38.46875 C 1.886719 -38.46875 1.640625 -37.8125 1.476562 -37.15625 C 1.3125 -36.582031 1.066406 -35.84375 0.902344 -35.679688 C 0.820312 -35.515625 0.164062 -33.957031 -0.492188 -32.152344 C -1.148438 -30.347656 -1.886719 -28.625 -2.050781 -28.296875 C -2.542969 -27.558594 -2.542969 -27.722656 -2.132812 -28.625 C -1.96875 -29.035156 -1.886719 -29.527344 -1.96875 -29.691406 C -2.050781 -29.9375 -1.96875 -30.019531 -1.804688 -30.019531 C -1.558594 -30.019531 -1.476562 -30.183594 -1.558594 -30.347656 C -1.640625 -30.511719 -1.640625 -30.59375 -1.558594 -30.59375 C -1.3125 -30.429688 -1.148438 -31.25 -1.3125 -31.496094 C -1.476562 -31.660156 -1.394531 -31.660156 -1.3125 -31.578125 C -1.148438 -31.578125 -1.066406 -31.660156 -0.984375 -31.824219 C -0.902344 -31.988281 -0.984375 -32.070312 -1.066406 -31.988281 C -1.394531 -31.742188 -0.984375 -32.972656 0.0820312 -35.515625 C 0.65625 -36.746094 1.066406 -37.976562 1.148438 -38.222656 C 1.230469 -38.386719 1.3125 -38.46875 1.476562 -38.46875 C 1.558594 -38.386719 1.722656 -38.46875 1.804688 -38.632812 C 1.804688 -38.796875 1.804688 -38.796875 1.640625 -38.714844 C 1.558594 -38.632812 1.476562 -38.550781 1.394531 -38.632812 C 1.394531 -38.960938 2.625 -41.832031 2.953125 -42.242188 C 3.117188 -42.488281 3.199219 -42.734375 3.117188 -42.734375 C 3.117188 -42.734375 3.117188 -42.980469 3.28125 -43.308594 C 3.445312 -43.71875 3.609375 -43.964844 3.855469 -43.964844 C 4.101562 -43.964844 4.265625 -43.964844 4.265625 -43.882812 C 4.347656 -43.71875 3.035156 -40.765625 2.625 -40.109375 Z M 4.429688 -45.601562 C 4.265625 -45.195312 4.183594 -45.113281 4.101562 -45.441406 C 4.101562 -45.519531 4.183594 -45.683594 4.265625 -45.765625 C 4.429688 -45.847656 4.429688 -45.765625 4.429688 -45.601562 Z M 4.429688 -45.601562 "/></g></g></g><g fill="#000000" fill-opacity="1"><g transform="translate(287.139656, 234.976966)"><g><path d="M 14.519531 -27.066406 C 14.519531 -27.230469 14.601562 -27.476562 14.847656 -27.558594 C 15.253906 -27.804688 16.8125 -29.445312 18.535156 -31.578125 C 22.308594 -36.089844 23.046875 -37.074219 24.359375 -39.289062 C 29.609375 -47.488281 30.347656 -49.046875 30.347656 -50.359375 L 30.265625 -51.179688 L 29.9375 -50.605469 C 29.691406 -50.359375 29.609375 -50.03125 29.691406 -49.949219 C 29.9375 -49.703125 29.363281 -48.636719 29.117188 -48.800781 C 28.953125 -48.800781 28.871094 -48.800781 29.035156 -48.636719 C 29.199219 -48.472656 25.753906 -43.390625 24.605469 -42.160156 C 24.113281 -41.667969 24.03125 -41.585938 24.113281 -41.996094 C 24.113281 -42.242188 24.277344 -42.570312 24.441406 -42.816406 C 25.34375 -44.046875 27.476562 -47.324219 28.460938 -48.882812 C 29.035156 -49.867188 29.691406 -50.851562 29.9375 -51.015625 C 30.101562 -51.261719 30.183594 -51.507812 30.101562 -51.671875 C 29.9375 -52.082031 29.609375 -51.671875 28.625 -50.03125 C 28.214844 -49.292969 27.722656 -48.554688 27.640625 -48.390625 C 27.476562 -48.226562 27.230469 -47.734375 26.984375 -47.40625 C 26.820312 -47.078125 26.65625 -46.832031 26.574219 -46.996094 C 26.574219 -47.078125 27.148438 -47.980469 27.804688 -49.128906 C 28.460938 -50.113281 28.953125 -51.097656 28.789062 -51.179688 C 28.707031 -51.261719 28.789062 -51.425781 28.953125 -51.425781 C 29.363281 -51.507812 30.59375 -53.804688 30.347656 -53.96875 C 30.265625 -54.050781 30.019531 -53.640625 29.691406 -53.066406 C 29.363281 -52.492188 29.035156 -52 28.871094 -52 C 28.707031 -52 27.96875 -50.933594 27.230469 -49.703125 C 22.800781 -42.570312 13.863281 -31.988281 7.628906 -26.65625 C 4.757812 -24.195312 2.542969 -22.71875 1.230469 -22.472656 L 0.164062 -22.226562 L 0.0820312 -23.210938 C 0 -23.867188 0 -24.441406 0.0820312 -24.523438 C 0.410156 -24.933594 0.246094 -25.589844 -0.164062 -25.34375 C -0.328125 -25.261719 -0.410156 -25.261719 -0.410156 -25.425781 C -0.410156 -25.589844 -0.246094 -25.753906 0 -25.753906 C 0.164062 -25.753906 0.328125 -26.164062 0.492188 -26.902344 C 0.984375 -29.855469 2.953125 -35.761719 4.265625 -38.222656 C 4.429688 -38.46875 4.839844 -39.371094 5.167969 -40.109375 C 5.496094 -40.847656 5.988281 -41.832031 6.234375 -42.324219 C 6.480469 -42.816406 7.136719 -43.964844 7.710938 -45.03125 C 8.203125 -46.011719 8.941406 -47.324219 9.269531 -47.980469 C 9.597656 -48.554688 10.253906 -49.703125 10.582031 -50.523438 C 10.992188 -51.261719 11.484375 -52.328125 11.8125 -52.902344 C 12.058594 -53.476562 12.304688 -54.214844 12.304688 -54.789062 L 12.222656 -55.773438 L 10.664062 -56.757812 C 9.351562 -57.660156 8.941406 -57.824219 8.285156 -57.742188 C 7.546875 -57.660156 7.382812 -57.496094 6.316406 -56.019531 C 5.25 -54.460938 4.839844 -53.722656 2.542969 -48.964844 C 1.886719 -47.570312 1.066406 -45.847656 0.738281 -45.195312 C 0.410156 -44.539062 -0.246094 -43.0625 -0.65625 -41.832031 C -1.066406 -40.683594 -1.640625 -39.125 -1.96875 -38.304688 C -2.214844 -37.566406 -2.625 -36.335938 -2.789062 -35.679688 C -3.035156 -35.023438 -3.28125 -33.957031 -3.445312 -33.382812 C -3.9375 -31.578125 -5.167969 -24.933594 -5.085938 -24.359375 C -5.085938 -24.195312 -4.59375 -23.539062 -4.019531 -22.800781 C -2.214844 -20.503906 0.164062 -19.273438 2.625 -19.355469 C 3.28125 -19.355469 3.773438 -19.355469 3.855469 -19.355469 C 4.839844 -19.355469 9.105469 -21.734375 10.828125 -23.375 C 12.960938 -25.261719 14.519531 -26.902344 14.519531 -27.066406 Z M 22.71875 -40.765625 C 23.046875 -40.683594 23.292969 -40.519531 23.375 -40.519531 C 23.375 -40.519531 23.210938 -40.4375 22.882812 -40.355469 C 22.554688 -40.355469 22.308594 -40.4375 22.308594 -40.601562 C 22.308594 -40.765625 22.390625 -40.847656 22.71875 -40.765625 Z M 11.730469 -67.09375 C 11.894531 -66.929688 12.058594 -66.683594 12.140625 -66.601562 C 12.140625 -66.4375 12.46875 -66.027344 12.796875 -65.617188 C 13.207031 -65.125 13.535156 -64.960938 14.191406 -64.960938 C 14.601562 -64.960938 15.09375 -64.960938 15.171875 -64.878906 C 15.582031 -64.386719 16.402344 -65.453125 17.960938 -68.488281 C 19.109375 -70.703125 20.257812 -72.589844 21.980469 -74.886719 C 22.554688 -75.625 23.128906 -76.605469 23.128906 -76.933594 C 23.128906 -77.261719 23.292969 -77.753906 23.375 -77.917969 C 23.539062 -78.246094 23.457031 -78.574219 23.046875 -79.394531 C 22.308594 -81.035156 21.898438 -80.953125 19.847656 -79.066406 C 17.714844 -77.097656 13.699219 -71.769531 12.304688 -69.308594 C 11.402344 -67.503906 11.320312 -67.339844 11.730469 -67.09375 Z M 11.730469 -67.09375 "/></g></g></g><g fill="#000000" fill-opacity="1"><g transform="translate(198.117546, 270.925105)"><g><path d="M 3.5625 0 L 3.5625 -20.75 L 6.25 -20.75 L 6.25 -1.625 L 16.953125 -1.625 L 16.953125 0 Z M 3.5625 0 "/></g></g></g><g fill="#000000" fill-opacity="1"><g transform="translate(215.958895, 270.925105)"><g><path d="M 15.53125 -6.765625 L 15.53125 -7.375 C 15.53125 -8.695312 15.34375 -9.84375 14.96875 -10.8125 C 14.59375 -11.78125 14.082031 -12.582031 13.4375 -13.21875 C 12.800781 -13.851562 12.054688 -14.328125 11.203125 -14.640625 C 10.347656 -14.953125 9.445312 -15.109375 8.5 -15.109375 C 7.5 -15.109375 6.570312 -14.9375 5.71875 -14.59375 C 4.875 -14.25 4.132812 -13.742188 3.5 -13.078125 C 2.863281 -12.421875 2.367188 -11.625 2.015625 -10.6875 C 1.660156 -9.75 1.484375 -8.6875 1.484375 -7.5 C 1.484375 -6.507812 1.632812 -5.546875 1.9375 -4.609375 C 2.25 -3.671875 2.710938 -2.832031 3.328125 -2.09375 C 3.953125 -1.351562 4.742188 -0.757812 5.703125 -0.3125 C 6.660156 0.132812 7.789062 0.359375 9.09375 0.359375 C 10.363281 0.359375 11.53125 0.132812 12.59375 -0.3125 C 13.664062 -0.757812 14.597656 -1.394531 15.390625 -2.21875 L 14.4375 -3.171875 C 14.019531 -2.816406 13.628906 -2.488281 13.265625 -2.1875 C 12.898438 -1.894531 12.53125 -1.648438 12.15625 -1.453125 C 11.78125 -1.253906 11.390625 -1.097656 10.984375 -0.984375 C 10.578125 -0.878906 10.128906 -0.828125 9.640625 -0.828125 C 9.078125 -0.828125 8.484375 -0.910156 7.859375 -1.078125 C 7.242188 -1.242188 6.664062 -1.546875 6.125 -1.984375 C 5.59375 -2.421875 5.148438 -3.023438 4.796875 -3.796875 C 4.441406 -4.566406 4.265625 -5.554688 4.265625 -6.765625 Z M 4.265625 -7.9375 C 4.265625 -8.726562 4.347656 -9.492188 4.515625 -10.234375 C 4.679688 -10.984375 4.9375 -11.644531 5.28125 -12.21875 C 5.632812 -12.789062 6.078125 -13.25 6.609375 -13.59375 C 7.140625 -13.9375 7.769531 -14.109375 8.5 -14.109375 C 9.90625 -14.109375 11 -13.554688 11.78125 -12.453125 C 12.5625 -11.359375 12.953125 -9.851562 12.953125 -7.9375 Z M 4.265625 -7.9375 "/></g></g></g><g fill="#000000" fill-opacity="1"><g transform="translate(232.970422, 270.925105)"><g/></g></g><g fill="#000000" fill-opacity="1"><g transform="translate(243.3433, 270.925105)"><g><path d="M 22.4375 -9.25 L 16.5625 -9.25 L 16.5625 -8.03125 L 19.890625 -8.03125 L 19.890625 -2.671875 C 19.003906 -2.097656 18.09375 -1.671875 17.15625 -1.390625 C 16.226562 -1.117188 15.171875 -0.984375 13.984375 -0.984375 C 12.429688 -0.984375 11.070312 -1.21875 9.90625 -1.6875 C 8.738281 -2.164062 7.769531 -2.820312 7 -3.65625 C 6.226562 -4.5 5.648438 -5.5 5.265625 -6.65625 C 4.878906 -7.8125 4.6875 -9.082031 4.6875 -10.46875 C 4.6875 -11.832031 4.867188 -13.085938 5.234375 -14.234375 C 5.597656 -15.378906 6.144531 -16.363281 6.875 -17.1875 C 7.601562 -18.019531 8.492188 -18.660156 9.546875 -19.109375 C 10.609375 -19.566406 11.84375 -19.796875 13.25 -19.796875 C 14.175781 -19.796875 15.046875 -19.695312 15.859375 -19.5 C 16.671875 -19.300781 17.390625 -19.046875 18.015625 -18.734375 C 18.648438 -18.421875 19.171875 -18.0625 19.578125 -17.65625 C 19.984375 -17.25 20.242188 -16.835938 20.359375 -16.421875 L 22.5 -16.421875 C 22.320312 -16.859375 22.019531 -17.347656 21.59375 -17.890625 C 21.164062 -18.429688 20.585938 -18.9375 19.859375 -19.40625 C 19.128906 -19.882812 18.222656 -20.285156 17.140625 -20.609375 C 16.066406 -20.941406 14.800781 -21.109375 13.34375 -21.109375 C 11.65625 -21.109375 10.101562 -20.867188 8.6875 -20.390625 C 7.28125 -19.921875 6.0625 -19.238281 5.03125 -18.34375 C 4.007812 -17.457031 3.210938 -16.363281 2.640625 -15.0625 C 2.066406 -13.769531 1.78125 -12.304688 1.78125 -10.671875 C 1.78125 -9.265625 2 -7.90625 2.4375 -6.59375 C 2.882812 -5.28125 3.566406 -4.101562 4.484375 -3.0625 C 5.410156 -2.03125 6.582031 -1.203125 8 -0.578125 C 9.425781 0.046875 11.125 0.359375 13.09375 0.359375 C 14.582031 0.359375 15.898438 0.195312 17.046875 -0.125 C 18.191406 -0.457031 19.140625 -0.820312 19.890625 -1.21875 L 19.890625 0 L 22.4375 0 Z M 22.4375 -9.25 "/></g></g></g><g fill="#000000" fill-opacity="1"><g transform="translate(267.556559, 270.925105)"><g><path d="M 2.375 -14.828125 L 2.375 0 L 4.890625 0 L 4.890625 -8.953125 C 4.890625 -9.765625 4.984375 -10.453125 5.171875 -11.015625 C 5.359375 -11.578125 5.597656 -12.035156 5.890625 -12.390625 C 6.191406 -12.742188 6.519531 -13 6.875 -13.15625 C 7.226562 -13.3125 7.570312 -13.390625 7.90625 -13.390625 C 8.363281 -13.390625 8.785156 -13.242188 9.171875 -12.953125 C 9.554688 -12.660156 9.835938 -12.382812 10.015625 -12.125 L 11.03125 -13.953125 C 10.851562 -14.191406 10.640625 -14.390625 10.390625 -14.546875 C 10.140625 -14.710938 9.890625 -14.835938 9.640625 -14.921875 C 9.398438 -15.015625 9.175781 -15.070312 8.96875 -15.09375 C 8.757812 -15.125 8.601562 -15.140625 8.5 -15.140625 C 7.675781 -15.140625 6.988281 -14.910156 6.4375 -14.453125 C 5.882812 -14.003906 5.425781 -13.335938 5.0625 -12.453125 L 4.890625 -12.453125 L 4.890625 -14.828125 Z M 2.375 -14.828125 "/></g></g></g><g fill="#000000" fill-opacity="1"><g transform="translate(278.877821, 270.925105)"><g><path d="M 7.828125 -15.140625 C 9.265625 -15.140625 10.378906 -14.9375 11.171875 -14.53125 C 11.960938 -14.132812 12.539062 -13.609375 12.90625 -12.953125 C 13.269531 -12.296875 13.484375 -11.539062 13.546875 -10.6875 C 13.609375 -9.84375 13.640625 -8.976562 13.640625 -8.09375 L 13.640625 0 L 11.234375 0 L 11.234375 -1.453125 C 10.660156 -0.898438 9.925781 -0.457031 9.03125 -0.125 C 8.144531 0.195312 7.257812 0.359375 6.375 0.359375 C 5.519531 0.359375 4.765625 0.210938 4.109375 -0.078125 C 3.460938 -0.378906 2.921875 -0.765625 2.484375 -1.234375 C 2.054688 -1.710938 1.734375 -2.25 1.515625 -2.84375 C 1.296875 -3.4375 1.1875 -4.039062 1.1875 -4.65625 C 1.1875 -5.289062 1.300781 -5.921875 1.53125 -6.546875 C 1.769531 -7.179688 2.125 -7.75 2.59375 -8.25 C 3.070312 -8.757812 3.65625 -9.171875 4.34375 -9.484375 C 5.039062 -9.796875 5.835938 -9.953125 6.734375 -9.953125 C 7.617188 -9.953125 8.460938 -9.78125 9.265625 -9.4375 C 10.066406 -9.09375 10.722656 -8.601562 11.234375 -7.96875 L 11.234375 -9.25 C 11.234375 -10.863281 10.988281 -12.066406 10.5 -12.859375 C 10.019531 -13.648438 9.140625 -14.046875 7.859375 -14.046875 C 7.304688 -14.046875 6.820312 -13.976562 6.40625 -13.84375 C 5.988281 -13.707031 5.613281 -13.515625 5.28125 -13.265625 C 4.957031 -13.015625 4.65625 -12.707031 4.375 -12.34375 C 4.101562 -11.976562 3.832031 -11.566406 3.5625 -11.109375 L 2.015625 -12.65625 C 2.296875 -12.945312 2.585938 -13.238281 2.890625 -13.53125 C 3.191406 -13.832031 3.566406 -14.101562 4.015625 -14.34375 C 4.460938 -14.582031 4.988281 -14.773438 5.59375 -14.921875 C 6.207031 -15.066406 6.953125 -15.140625 7.828125 -15.140625 Z M 11.234375 -5.875 C 11.128906 -6.101562 10.984375 -6.375 10.796875 -6.6875 C 10.609375 -7.007812 10.367188 -7.316406 10.078125 -7.609375 C 9.785156 -7.910156 9.429688 -8.164062 9.015625 -8.375 C 8.597656 -8.582031 8.101562 -8.6875 7.53125 -8.6875 C 6.957031 -8.6875 6.429688 -8.570312 5.953125 -8.34375 C 5.484375 -8.113281 5.082031 -7.816406 4.75 -7.453125 C 4.425781 -7.085938 4.175781 -6.65625 4 -6.15625 C 3.820312 -5.664062 3.734375 -5.15625 3.734375 -4.625 C 3.734375 -3.988281 3.847656 -3.4375 4.078125 -2.96875 C 4.304688 -2.507812 4.597656 -2.113281 4.953125 -1.78125 C 5.304688 -1.457031 5.695312 -1.21875 6.125 -1.0625 C 6.5625 -0.90625 6.976562 -0.828125 7.375 -0.828125 C 7.75 -0.828125 8.128906 -0.894531 8.515625 -1.03125 C 8.898438 -1.175781 9.265625 -1.367188 9.609375 -1.609375 C 9.960938 -1.859375 10.273438 -2.148438 10.546875 -2.484375 C 10.828125 -2.828125 11.054688 -3.195312 11.234375 -3.59375 Z M 11.234375 -5.875 "/></g></g></g><g fill="#000000" fill-opacity="1"><g transform="translate(294.881696, 270.925105)"><g><path d="M 14.765625 0 L 14.765625 -9.609375 C 14.765625 -9.960938 14.734375 -10.445312 14.671875 -11.0625 C 14.609375 -11.6875 14.414062 -12.300781 14.09375 -12.90625 C 13.769531 -13.507812 13.25 -14.03125 12.53125 -14.46875 C 11.820312 -14.914062 10.816406 -15.140625 9.515625 -15.140625 C 8.941406 -15.160156 8.296875 -15.046875 7.578125 -14.796875 C 6.867188 -14.554688 6.171875 -14.085938 5.484375 -13.390625 L 5.015625 -12.921875 L 4.890625 -12.921875 L 4.890625 -14.828125 L 2.375 -14.828125 L 2.375 0 L 4.890625 0 L 4.890625 -9.15625 C 4.890625 -9.925781 5 -10.585938 5.21875 -11.140625 C 5.4375 -11.691406 5.734375 -12.15625 6.109375 -12.53125 C 6.484375 -12.90625 6.910156 -13.179688 7.390625 -13.359375 C 7.878906 -13.546875 8.378906 -13.640625 8.890625 -13.640625 C 9.722656 -13.640625 10.363281 -13.472656 10.8125 -13.140625 C 11.269531 -12.816406 11.601562 -12.4375 11.8125 -12 C 12.019531 -11.570312 12.140625 -11.140625 12.171875 -10.703125 C 12.210938 -10.265625 12.234375 -9.945312 12.234375 -9.75 L 12.234375 0 Z M 14.765625 0 "/></g></g></g><g fill="#000000" fill-opacity="1"><g transform="translate(312.100681, 270.925105)"><g><path d="M 12.953125 1.25 C 12.953125 2.15625 12.84375 2.921875 12.625 3.546875 C 12.40625 4.179688 12.101562 4.695312 11.71875 5.09375 C 11.332031 5.488281 10.878906 5.773438 10.359375 5.953125 C 9.835938 6.128906 9.28125 6.21875 8.6875 6.21875 C 7.632812 6.21875 6.785156 5.953125 6.140625 5.421875 C 5.503906 4.890625 4.921875 4.179688 4.390625 3.296875 L 2.75 4.765625 C 2.894531 4.941406 3.113281 5.175781 3.40625 5.46875 C 3.707031 5.757812 4.082031 6.046875 4.53125 6.328125 C 4.988281 6.617188 5.53125 6.863281 6.15625 7.0625 C 6.789062 7.269531 7.515625 7.375 8.328125 7.375 C 9.828125 7.375 11.039062 7.160156 11.96875 6.734375 C 12.90625 6.316406 13.628906 5.75 14.140625 5.03125 C 14.648438 4.320312 15 3.507812 15.1875 2.59375 C 15.375 1.675781 15.46875 0.722656 15.46875 -0.265625 L 15.46875 -14.828125 L 12.953125 -14.828125 L 12.953125 -12.515625 L 12.828125 -12.515625 C 12.597656 -13.335938 12.09375 -13.976562 11.3125 -14.4375 C 10.53125 -14.90625 9.503906 -15.140625 8.234375 -15.140625 C 7.234375 -15.140625 6.316406 -14.957031 5.484375 -14.59375 C 4.648438 -14.226562 3.9375 -13.707031 3.34375 -13.03125 C 2.75 -12.363281 2.289062 -11.554688 1.96875 -10.609375 C 1.644531 -9.660156 1.484375 -8.601562 1.484375 -7.4375 C 1.484375 -6.25 1.644531 -5.175781 1.96875 -4.21875 C 2.289062 -3.257812 2.75 -2.4375 3.34375 -1.75 C 3.9375 -1.070312 4.644531 -0.550781 5.46875 -0.1875 C 6.289062 0.175781 7.203125 0.359375 8.203125 0.359375 C 9.316406 0.359375 10.28125 0.140625 11.09375 -0.296875 C 11.914062 -0.734375 12.492188 -1.425781 12.828125 -2.375 L 12.953125 -2.375 Z M 12.953125 -6.3125 C 12.953125 -5.476562 12.835938 -4.742188 12.609375 -4.109375 C 12.378906 -3.484375 12.078125 -2.953125 11.703125 -2.515625 C 11.328125 -2.085938 10.890625 -1.757812 10.390625 -1.53125 C 9.898438 -1.300781 9.390625 -1.1875 8.859375 -1.1875 C 8.390625 -1.1875 7.878906 -1.269531 7.328125 -1.4375 C 6.785156 -1.601562 6.28125 -1.910156 5.8125 -2.359375 C 5.351562 -2.816406 4.96875 -3.460938 4.65625 -4.296875 C 4.351562 -5.128906 4.203125 -6.195312 4.203125 -7.5 C 4.203125 -8.882812 4.390625 -9.984375 4.765625 -10.796875 C 5.140625 -11.617188 5.578125 -12.25 6.078125 -12.6875 C 6.585938 -13.125 7.101562 -13.40625 7.625 -13.53125 C 8.15625 -13.65625 8.566406 -13.71875 8.859375 -13.71875 C 9.515625 -13.71875 10.097656 -13.570312 10.609375 -13.28125 C 11.117188 -13 11.546875 -12.613281 11.890625 -12.125 C 12.242188 -11.644531 12.507812 -11.085938 12.6875 -10.453125 C 12.863281 -9.828125 12.953125 -9.175781 12.953125 -8.5 Z M 12.953125 -6.3125 "/></g></g></g><g fill="#000000" fill-opacity="1"><g transform="translate(329.94203, 270.925105)"><g><path d="M 15.53125 -6.765625 L 15.53125 -7.375 C 15.53125 -8.695312 15.34375 -9.84375 14.96875 -10.8125 C 14.59375 -11.78125 14.082031 -12.582031 13.4375 -13.21875 C 12.800781 -13.851562 12.054688 -14.328125 11.203125 -14.640625 C 10.347656 -14.953125 9.445312 -15.109375 8.5 -15.109375 C 7.5 -15.109375 6.570312 -14.9375 5.71875 -14.59375 C 4.875 -14.25 4.132812 -13.742188 3.5 -13.078125 C 2.863281 -12.421875 2.367188 -11.625 2.015625 -10.6875 C 1.660156 -9.75 1.484375 -8.6875 1.484375 -7.5 C 1.484375 -6.507812 1.632812 -5.546875 1.9375 -4.609375 C 2.25 -3.671875 2.710938 -2.832031 3.328125 -2.09375 C 3.953125 -1.351562 4.742188 -0.757812 5.703125 -0.3125 C 6.660156 0.132812 7.789062 0.359375 9.09375 0.359375 C 10.363281 0.359375 11.53125 0.132812 12.59375 -0.3125 C 13.664062 -0.757812 14.597656 -1.394531 15.390625 -2.21875 L 14.4375 -3.171875 C 14.019531 -2.816406 13.628906 -2.488281 13.265625 -2.1875 C 12.898438 -1.894531 12.53125 -1.648438 12.15625 -1.453125 C 11.78125 -1.253906 11.390625 -1.097656 10.984375 -0.984375 C 10.578125 -0.878906 10.128906 -0.828125 9.640625 -0.828125 C 9.078125 -0.828125 8.484375 -0.910156 7.859375 -1.078125 C 7.242188 -1.242188 6.664062 -1.546875 6.125 -1.984375 C 5.59375 -2.421875 5.148438 -3.023438 4.796875 -3.796875 C 4.441406 -4.566406 4.265625 -5.554688 4.265625 -6.765625 Z M 4.265625 -7.9375 C 4.265625 -8.726562 4.347656 -9.492188 4.515625 -10.234375 C 4.679688 -10.984375 4.9375 -11.644531 5.28125 -12.21875 C 5.632812 -12.789062 6.078125 -13.25 6.609375 -13.59375 C 7.140625 -13.9375 7.769531 -14.109375 8.5 -14.109375 C 9.90625 -14.109375 11 -13.554688 11.78125 -12.453125 C 12.5625 -11.359375 12.953125 -9.851562 12.953125 -7.9375 Z M 4.265625 -7.9375 "/></g></g></g></svg>